<svg width="85" height="85" version="1.1" viewBox="0 0 22.489583 22.489584" xmlns="http://www.w3.org/2000/svg">
 <g transform="translate(0,-274.5104)" stroke-width=".26458332">
  <path d="m10.134836 291.44235c-0.6556622-0.23465-1.2772531-0.54888-1.8953478-0.86683-0.66382-0.3808-1.3672902-0.74457-1.8819368-1.32703-0.080115-0.0907-0.1480055-0.19145-0.2220082-0.28718-0.2808375-0.44079-0.4374298-0.95984-0.4580837-1.48305-0.00359-0.0908 0.00374-0.18176 0.00561-0.27264 0.04255-0.3729 0.1504841-0.74256 0.3057255-1.08465 0.097915-0.21576 0.2039649-0.38767 0.3224543-0.59331 0.4434464-0.72916 0.9711899-1.40159 1.5285162-2.04608 0.6173298-0.6894 1.3748297-1.22157 2.1398647-1.73168 0.5049908-0.33438 0.3591948-0.24416 1.2490908-0.74338 0.0799-0.0448 0.248674-0.11549 0.345444-0.1259 0.144349-0.0155 0.234456 0.0258 0.372766 0.0646 0.09432 0.0525 0.193637 0.0969 0.282971 0.15751 0.312048 0.2117 0.624699 0.49955 0.893224 0.75491 0.391167 0.37198 0.69074 0.6817 1.040018 1.09365 0.154099 0.18174 0.29719 0.37254 0.445785 0.55882 0.700021 0.92422 1.158169 1.98557 1.584282 3.05441 0.17637 0.55895 0.442397 1.12404 0.449803 1.72165 9.79e-4 0.0788-0.01017 0.15736-0.01526 0.23604-0.04899 0.3755-0.25221 0.68241-0.495501 0.96107-0.266909 0.27565-0.580846 0.49848-0.901715 0.70626-0.490537 0.37865-0.977214 0.578-1.529346 0.7703-0.36478 0.20743 0.483787-0.27838 0.727784-0.41383 0.02599-0.0144-0.04873 0.0341-0.07306 0.0512-0.08192 0.0575-0.164165 0.11442-0.246709 0.171-0.555497 0.38397-1.158938 0.67216-1.768976 0.95122-0.459461 0.23039-0.92927 0.43952-1.397148 0.6521-0.05047 0.0211-0.100949 0.0421-0.151424 0.0632l0.769646-0.60754c0.04875-0.0208 0.09751-0.0416 0.146262-0.0624 0.465247-0.21035 0.932093-0.41754 1.388707-0.64631 0.209724-0.0979 0.419008-0.19529 0.624126-0.30256 0.03913-0.0205 0.154885-0.0848 0.116825-0.0624-0.246499 0.14493-0.494813 0.28675-0.74222 0.43012l0.09378-0.0555c0.422592-0.27084 0.807198-0.61854 1.294217-0.77748 0.09107-0.0321 0.18418-0.0601 0.274171-0.0951 0.313362-0.1217 0.861169-0.47055-0.439643 0.28852 0.325299-0.19887 0.638146-0.42075 0.915472-0.68338 0.244143-0.25594 0.454121-0.55275 0.525531-0.90534 0.0088-0.075 0.0242-0.14957 0.02639-0.22508 0.01679-0.57738-0.244137-1.16874-0.41124-1.70883-0.409615-1.06625-0.856012-2.12334-1.543148-3.04653-0.146039-0.18562-0.285825-0.37634-0.438118-0.55686-0.336019-0.39832-0.655969-0.72983-1.042964-1.07891-0.267753-0.24152-0.603031-0.52164-0.921488-0.70932-0.08933-0.0527-0.188616-0.0862-0.282925-0.12931-0.152485-0.0273-0.19806-0.0525-0.345998-0.0205-0.213413 0.0461-1.1638222 0.56891 0.303666-0.22935 0.08092-0.044-0.154342 0.10062-0.231512 0.15093-0.772574 0.50455-1.5431336 1.02576-2.1665912 1.71471-0.5555297 0.63589-1.0776003 1.30253-1.5204344 2.02289-0.104348 0.17933-0.231403 0.38785-0.3201152 0.57708-0.1557231 0.33217-0.2669373 0.69077-0.3186152 1.05359-0.00405 0.0876-0.013592 0.17521-0.012147 0.26294 0.00836 0.50716 0.1554837 1.01095 0.4223618 1.44063 0.070838 0.093 0.1357759 0.19075 0.2125141 0.27891 0.5032497 0.57819 1.1954452 0.94443 1.8571175 1.30715 0.6235896 0.31595 1.2536666 0.62973 1.9279546 0.824l-0.818404 0.55891z"/>
  <path d="m7.5992351 285.90917c0.14619-0.3129 0.3461862-0.59441 0.5592157-0.86445 0.1923576-0.22484 0.3943752-0.44194 0.6133409-0.64111 0.3682402-0.34912 0.7298468-0.54203 1.2364593-0.76495 0.03207-0.0141 0.06107 0.0343 0.09161 0.0515 0.02711 0.0332 0.05886 0.0631 0.08133 0.0996 0.03619 0.0588 0.120364 0.26348 0.142605 0.32039 0.09871 0.25258 0.167976 0.51279 0.23999 0.77388 0.124083 0.42964 0.21775 0.86963 0.37032 1.29066 0.0079 0.016 0.01572 0.032 0.02358 0.048l-0.866977 0.48708c-0.0075-0.0196-0.01496-0.0393-0.02243-0.0589-0.1272261-0.43272-0.2231261-0.87406-0.347507-1.30759-0.074219-0.25506-0.1478606-0.50857-0.2491648-0.75453-0.017013-0.0413-0.1019818-0.23731-0.1359572-0.2876-0.015161-0.0224-0.038648-0.0379-0.057972-0.0569-0.3628575-0.0252-0.084805 5e-3 0.727292-0.4711 0.02524-0.0148-0.049657 0.0311-0.073217 0.0485-0.087279 0.0643-0.1688235 0.13753-0.2480056 0.2113-0.2262579 0.19088-0.4252611 0.40973-0.6254962 0.62718-0.2103112 0.26141-0.4184586 0.52825-0.5573757 0.83622l-0.9016413 0.41288z"/>
  <path d="m11.005545 286.11576c0.136406-0.26034 0.288225-0.51173 0.440188-0.76313 0.136218-0.21054 0.23402-0.44547 0.373321-0.65365 0.840167-0.50179 0.840591-0.78573 1.350566-0.19514 0.413536 0.55251 0.816661 1.11225 1.191595 1.6917 0.162476 0.25214 0.335338 0.51073 0.418395 0.80244 0.0024 0.0128 0.0049 0.0256 0.0073 0.0383l-0.886897 0.45754c0.0013-9e-3 0.0027-0.017 0.0041-0.0256-0.04166-0.28868-0.239725-0.53952-0.37547-0.78774-0.358574-0.58408-0.748878-1.14931-1.197889-1.66832-0.07853-0.0823-0.159488-0.17926-0.267836-0.22529-0.271995-0.11555-1.277834 0.76943 0.669448-0.47548-0.0767 0.072-0.109631 0.15024-0.159745 0.24227-0.07391 0.13574-0.162783 0.26267-0.230572 0.40186-0.148876 0.24766-0.302129 0.49254-0.432096 0.75099l-0.904393 0.40917z"/>
  <path d="m10.905915 289.86327c0.282901 0.10709 0.583557 0.10613 0.87984 0.074 0.32157-0.0624 0.639382-0.18099 0.921502-0.34813-1.381679 0.78522-0.658829 0.4324-0.409716 0.17215 0.06761-0.0706 0.07066-0.0836 0.121703-0.16329 0.09971-0.17152 0.08963-0.33494 0.01114-0.51035-0.09882-0.21768-0.281322-0.36445-0.457575-0.51625-0.272556-0.24448-0.622316-0.3605-0.959401-0.48715-0.594626-0.22173-1.205336-0.39324-1.8234474-0.53463-0.052687-5e-3 -0.2001279-0.0315-0.2650151-2e-3 -0.021109 0.01-0.06496 0.0642-0.044535 0.0533 0.2766552-0.14768 0.5338587-0.33182 0.8173791-0.46584 0.023114-0.0109 1.905e-4 0.0516 0.00639 0.0764 0.011205 0.0448 0.030301 0.0873 0.045451 0.13097 0.1663587 0.3919 0.3883124 0.75789 0.6438954 1.0975 0.188166 0.24084 0.408809 0.45246 0.624256 0.66813 0.0813 0.10581 0.189793 0.1836 0.283284 0.2758l-0.861752 0.51015c-0.06748-0.10313-0.198399-0.16325-0.262859-0.27166-0.2134125-0.22275-0.4373056-0.43669-0.6207798-0.68605-0.2542786-0.35092-0.4842264-0.72156-0.6647122-1.11617-0.019595-0.0474-0.041733-0.0938-0.058787-0.14222-0.013576-0.0385-0.063962-0.0914-0.032938-0.11798 0.5562672-0.47604 0.6606572-0.66614 1.1906819-0.56249 0.6136861 0.1607 1.2235561 0.33564 1.8212591 0.54934 0.35269 0.12756 0.718205 0.24502 1.000536 0.50272 0.184428 0.16246 0.369716 0.32601 0.478418 0.55209 0.09364 0.19574 0.127911 0.39018 0.03209 0.59414-0.03963 0.0771-0.05689 0.12036-0.113034 0.18892-0.315091 0.3848-0.914868 0.55673-1.265554 0.82054-0.295627 0.15156-0.613663 0.27319-0.944802 0.31463-0.309639 0.0213-0.618711 6e-3 -0.913868-0.0993l0.820942-0.557z"/>
  <path d="m8.7199961 281.41494c0.019585-0.26581 0.052396-0.53327 0.041078-0.80035-0.00592-0.13973-0.027223-0.2605-0.047503-0.39819-0.039323-0.30175-0.1746612-0.54896-0.3641423-0.77981-0.1753685-0.19768-0.3593629-0.3868-0.5502169-0.5695-0.1367915-0.11032-0.2333398-0.28497-0.4017309-0.35034-0.020209 1e-3 -0.041592-3e-3 -0.060628 3e-3 -0.025207 9e-3 -0.045223 0.0288-0.067948 0.043-0.029194 0.0183-0.1180107 0.071-0.087806 0.0544 0.249455-0.13658 0.4917006-0.28664 0.7456725-0.41462 0.03889-0.0196-0.065499 0.0574-0.096868 0.0877-0.034205 0.0329-0.066511 0.0678-0.099767 0.1017-0.1181325 0.14661-0.2710693 0.31528-0.2723378 0.51692-2.005e-4 0.0319 0.00877 0.0632 0.013155 0.0949 0.07069 0.20843 0.2499842 0.35516 0.4176308 0.4879 0.109751 0.10491 0.2106596 0.20356 0.3686326 0.21188 0.3009196-0.16229 0.7409936-0.37034-0.6622466 0.37639-0.023778 0.0127 0.041506-0.0351 0.057381-0.0569 0.043678-0.0599 0.053511-0.1124 0.075625-0.18229 0.092631-0.37426-0.095843-0.70449-0.2968133-1.00604-0.2287223-0.32025-0.5335733-0.57066-0.8792922-0.75396-0.3191557-0.14461-0.6707505-0.16983-1.0159944-0.15174-0.4470575 0.0633-0.879978 0.20906-1.2943239 0.38546-0.483674 0.26596 0.4041946-0.23686 0.6102929-0.34807 0.027653-0.0149-0.050565 0.0375-0.073582 0.0589-0.018971 0.0176-0.034643 0.0385-0.051964 0.0577l-0.9099373 0.39283c0.2539199-0.41102 0.7707715-0.55769 1.1936328-0.76665 0.4218964-0.16537 0.8586679-0.3096 1.3115314-0.3553 0.3607935-7e-3 0.7242947 0.0239 1.0509623 0.19137 0.3520307 0.1997 0.6610201 0.46739 0.8963588 0.79871 0.2124411 0.32075 0.4211619 0.67107 0.3502287 1.07128-0.018479 0.0851-0.024778 0.13351-0.058071 0.21347-0.1531017 0.36768-0.5915641 0.41664-0.9559983 0.62251-0.023839 0.0135-0.051768 0.0192-0.0789 0.0228-0.027039 4e-3 -0.054565-7.4e-4 -0.081848-1e-3 -0.1602645-0.0445-0.2782017-0.13939-0.3940977-0.25636-0.1805021-0.15416-0.3700671-0.3194-0.4511955-0.549-0.00831-0.0394-0.021611-0.0782-0.024918-0.11835-0.018333-0.22273 0.123258-0.41075 0.2487751-0.57885 0.3765385-0.40804 0.35482-0.31451 1.1290196-0.77138 0.089217-0.0526 0.1793685-0.0669 0.2755937-0.028 0.1613496 0.0985 0.2739435 0.25171 0.4112276 0.37916 0.1918811 0.18698 0.3780539 0.37943 0.5553382 0.58038 0.2024179 0.25263 0.3379687 0.5028 0.3823711 0.82976 0.018428 0.1258 0.044669 0.2859 0.051372 0.41228 0.014137 0.26656-0.018354 0.53368-0.023794 0.79997l-0.8839551 0.44188z"/>
  <path d="m12.989528 282.42883c0.0021-0.35374 0.06257-0.70362 0.0948-1.05516 0.04147-0.45234 0.03647-0.46907 0.05707-0.93569 0.02664-0.75702-0.04476-1.51469-0.192823-2.25712-0.09263-0.46447-0.150305-0.6374-0.275524-1.07979-0.114737-0.33408-0.223866-0.67275-0.382086-0.98973-0.03334-0.0668-0.122519-0.22967-0.184926-0.291-0.02255-0.0222-0.05424-0.0325-0.08136-0.0488-0.02736-1e-4 -0.05557-7e-3 -0.08209-2.9e-4 -0.07519 0.0191-0.346655 0.19302-0.216941 0.12285 1.054474-0.57041 0.833108-0.5163 0.486288-0.20495-0.150933 0.14269-0.304005 0.29058-0.40574 0.47429-0.07032 0.12698-0.07692 0.17318-0.120695 0.31243-0.101973 0.3499-0.0367 0.69141 0.09083 1.02358 0.08494 0.17841 0.216804 0.53764 0.390835 0.64153 0.07846-0.37786 0.0051 0.0658-0.786922 0.35518-0.04399 0.0161 0.01973-0.0924 0.01862-0.13925-0.0017-0.073-0.01372-0.14562-0.02705-0.21743-0.03961-0.21331-0.07312-0.28906-0.142154-0.49482-0.151323-0.39383-0.37381-0.77354-0.726245-1.01981-0.07153-0.05-0.149849-0.0895-0.224773-0.13423-0.7455913-0.34661-1.5645161-0.48079-2.3662817-0.63213-0.335126-0.0638-0.6718885-0.11361-1.0109409-0.14977l0.7886655-0.55822c0.3329596 0.0475 0.6641809 0.10433 0.9942722 0.1691 0.8144655 0.15788 1.6490129 0.29112 2.4058339 0.64675 0.0779 0.0484 0.15944 0.0915 0.233694 0.1453 0.361563 0.26222 0.592556 0.65739 0.752341 1.06613 0.0823 0.23918 0.170629 0.48561 0.200294 0.73874 0.0063 0.0537 0.04039 0.12628 1.2e-5 0.16228-0.753494 0.6716-0.54137 0.71252-0.949023 0.59145-0.19757-0.18243-0.296287-0.45587-0.405917-0.69475-0.135509-0.34755-0.215026-0.71003-0.120035-1.07992 0.03473-0.13303 0.04831-0.21143 0.107377-0.33569 0.09208-0.19371 0.242042-0.35181 0.394538-0.49879 0.400371-0.37838 0.510429-0.39088 1.187975-0.78401 0.120483-0.0699 0.239003-0.0972 0.367402-0.0344 0.03109 0.0264 0.06672 0.0482 0.09327 0.0792 0.06407 0.0747 0.143994 0.23538 0.180486 0.31655 0.147683 0.32852 0.248674 0.67566 0.359415 1.01747 0.289679 1.09775 0.52921 2.21734 0.485377 3.36009-0.01353 0.43786-0.03155 0.875-0.06848 1.31165-0.01918 0.2268-0.03651 0.27301-0.04195 0.48978-0.0014 0.0541 0.0027 0.10819 0.0041 0.16228l-0.881531 0.44916z"/>
  <path d="m15.513986 291.32886c0.280449 0.35022 0.524959 0.72728 0.772824 1.10076 0.20059 0.28946 0.391413 0.58651 0.536505 0.90796 0.04843 0.10532 0.07252 0.21786 0.09554 0.33059l-0.872174 0.46503c-0.01826-0.10663-0.03794-0.21288-0.08077-0.31313-0.135933-0.31967-0.325201-0.61149-0.516684-0.90035-0.242505-0.37202-0.483762-0.7495-0.783494-1.07878l0.848255-0.51208z"/>
  <path d="m8.3375015 291.2912c0.050453 0.29587 0.1397513 0.5827 0.24595 0.86276 0.1203614 0.29103 0.246856 0.57947 0.3596362 0.87358 0.062464 0.17996 0.1161127 0.36292 0.1518677 0.55011 0.018645 0.10019 0.050099 0.19656 0.082866 0.29277l-0.868804 0.47912c-0.034187-0.10096-0.068548-0.20139-0.088866-0.30636-0.030789-0.18281-0.083704-0.36031-0.1385017-0.53717-0.1077328-0.296-0.2309106-0.58603-0.3515257-0.87694-0.1106678-0.28261-0.2054371-0.57029-0.2667543-0.86812 0 0 0.874131-0.46975 0.8741318-0.46975z"/>
  <path d="m3.802022 285.96373c-0.1614662-0.22181-0.3160271-0.45122-0.4495586-0.69118-0.013674-0.0295-0.027347-0.0591-0.041021-0.0886l0.8621017-0.48595c0.01189 0.0276 0.023778 0.0553 0.035669 0.0829 0.1259396 0.23852 0.2729042 0.46947 0.44548 0.67678l-0.8526708 0.50602z"/>
  <path d="m17.241241 286.38181c2.625064-1.51187 0.137189-0.0836 0.207875-0.12176 0.324508-0.17494 0.639076-0.36781 0.961887-0.54587 0.102374-0.0565 0.223964-0.0869 0.332643-0.12948 0.18059-0.0475 0.360008-0.0928 0.537989-0.15008l-0.78125 0.60472c-0.177388 0.0542-0.359621 0.0909-0.533851 0.1549-0.05678 0.0216-0.154027 0.0578-0.208795 0.0818-0.0387 0.017-0.150805 0.0759-0.114659 0.0541 0.312657-0.1893 1.923648-1.11402-0.226851 0.12775-0.250245 0.1445 0.499992-0.28985 0.749988-0.43478l-0.924976 0.35878z"/>
  <path d="m17.76258 283.54326c-0.244808-0.12682-0.483543-0.25496-0.700999-0.42579-0.219177-0.17074-0.418719-0.36866-0.601314-0.57796-0.08879-0.12329-0.215623-0.23266-0.173106-0.39577 0.587697-0.40642 0.74043-0.59149 1.288678-0.5146 0.154392 0.0543 0.317014 0.0734 0.474903 0.11185 0.183756 0.0351 0.3652 0.0806 0.542114 0.14109 0.140739 0.0722 0.227381 0.13803 0.296118 0.28244 0.05702 0.16105-0.0215 0.28868-0.138754 0.39468-0.323371 0.23584-0.693174 0.4266-1.034944 0.61552-0.06713 0.0371-0.114064-0.0576-0.139639-0.0983-0.0056-0.0223-0.01529-0.044-0.01691-0.067-0.0097-0.13741 0.08092-0.41804 0.118253-0.55877 0.05521-0.20105 0.121479-0.3979 0.158897-0.60332 0.02764-0.16982 0.03004-0.34224 0.03184-0.51387 0.0044-0.16608 3e-3 -0.33045-0.03361-0.49301-0.03698-0.14401-0.08251-0.28579-0.132345-0.42583-0.05983-0.14457-0.08-0.29909-0.09367-0.45363-0.01046-0.17141-0.0094-0.34321-0.0098-0.51485 3e-3 -0.14144-0.0095-0.28369 0.01167-0.42407 0.04805-0.36098 0.0049-0.10346 0.919005-0.44888 0.02112-8e-3 0.02078 0.0402 0.02908 0.0612 0.02768 0.0701 0.03642 0.14634 0.05115 0.21976 0.03764 0.18583 0.05456 0.37498 0.06616 0.56396 0.0019 0.13614 6.08e-4 0.26559 0.04988 0.39343 0.05545 0.12967 0.132778 0.24479 0.220719 0.35421 0.120547 0.13651 0.263563 0.2476 0.402031 0.36443 0.08249 0.0999 0.193155 0.16839 0.286507 0.25621 0.09329 0.10663 0.103068 0.24814 0.113556 0.38319 0.01688 0.12542-0.01801 0.24146-0.06276 0.3568l-0.903826 0.4113c0.05444-0.0946 0.09505-0.20078 0.08518-0.31155-6e-3 -0.10783-0.0024-0.23064-0.07836-0.31575-0.09512-0.0834-0.196042-0.16045-0.280234-0.25571-0.143029-0.12087-0.289113-0.23861-0.412774-0.38029-0.09411-0.11734-0.177123-0.24071-0.238267-0.37878-0.06048-0.15181-0.06588-0.25995-0.06203-0.42304-0.0082-0.18426-0.02092-0.36907-0.05965-0.54984-0.01461-0.0651-0.02061-0.13546-0.04299-0.19857-0.0051-0.0144-0.03162-0.0334-0.01882-0.0416 0.662184-0.4267 1.166793-0.61246 0.835582-0.48975-0.05188 0.12717-0.01795 0.2698-0.02804 0.40362-4.23e-4 0.16913-9.79e-4 0.33841 0.0073 0.50739 0.01003 0.14623 0.02507 0.29287 0.08155 0.42975 0.05287 0.14286 0.09713 0.2891 0.13643 0.43623 0.04319 0.16915 0.05153 0.34069 0.04424 0.51484-0.0011 0.17631-0.0011 0.35343-0.02516 0.52843-0.03399 0.21017-0.0966 0.41063-0.15771 0.61406-0.05301 0.17934-0.09725 0.36299-0.131337 0.54663 0.0026 4e-3 0.0036 0.0113 0.0079 0.0106 0.0056-9.5e-4 0.0058-0.0102 0.01029-0.0137 0.01048-8e-3 0.04545-0.027 0.03403-0.0203-1.40641 0.81913-0.958303 0.56204-0.658177 0.37825 0.09432-0.0667 0.218568-0.14087 0.193953-0.27486-0.04925-0.10872-0.143343-0.17094-0.252785-0.21501-0.174342-0.0587-0.354599-0.0979-0.535106-0.13265-0.157389-0.0309-0.312338-0.07-0.468968-0.1038-0.492687-0.0455-0.851551 0.32658 0.437769-0.44719-0.150824 0.0216 0.07428 0.2145 0.100087 0.27497 0.176576 0.20588 0.371281 0.39816 0.586188 0.56396 0.217081 0.16334 0.455935 0.28609 0.70029 0.40369l-0.829249 0.54562z"/>
 </g>
</svg>
